<svg version="1.1" id="Layer_1" xmlns="http://www.w3.org/2000/svg" xmlns:xlink="http://www.w3.org/1999/xlink" x="0px" y="0px"
	 width="100%" viewBox="0 0 120 76" enable-background="new 0 0 120 76" xml:space="preserve">
<path fill="#141414" opacity="1.000000" stroke="none" 
	d="
M82.000000,77.000000 
	C54.666668,77.000000 27.833334,77.000000 1.000000,77.000000 
	C1.000000,51.666668 1.000000,26.333334 1.000000,1.000000 
	C41.000000,1.000000 81.000000,1.000000 121.000000,1.000000 
	C121.000000,26.333334 121.000000,51.666668 121.000000,77.000000 
	C108.166664,77.000000 95.333336,77.000000 82.000000,77.000000 
M82.200706,61.181843 
	C87.176743,61.160091 92.179047,61.449978 97.121819,61.033504 
	C102.639046,60.568630 107.855263,58.711861 109.447685,52.654205 
	C111.051186,46.554379 111.135849,40.471317 104.815636,36.157970 
	C110.256386,31.990545 110.822075,26.626837 109.247093,20.763765 
	C107.702057,15.012206 102.952225,12.885303 97.898712,12.572859 
	C89.717987,12.067065 81.477859,12.522089 73.172348,12.571951 
	C73.172348,18.022085 73.172348,22.109377 73.172348,25.728842 
	C78.380707,25.728842 83.332787,25.616751 88.272705,25.812155 
	C89.425484,25.857752 90.536980,26.947342 91.667465,27.556593 
	C90.470764,28.310492 89.345390,29.515846 88.061623,29.718678 
	C85.805367,30.075155 83.452217,29.818287 80.919647,29.818287 
	C80.919647,34.396889 80.919647,38.629013 80.919647,43.188168 
	C83.498619,43.188168 85.817215,43.284954 88.124527,43.164993 
	C91.408440,42.994263 92.821281,44.087906 91.304565,48.005020 
	C85.260345,47.721352 79.165176,47.435295 72.875267,47.140099 
	C72.875267,51.426704 72.875267,55.536644 72.875267,59.983631 
	C75.749313,60.371548 78.529137,60.746742 82.200706,61.181843 
M37.366920,12.272677 
	C29.937033,12.272677 22.507145,12.272677 14.796629,12.272677 
	C14.796629,20.936110 14.796629,28.922245 14.796629,36.908382 
	C14.796629,44.846642 14.796629,52.784904 14.796629,60.706200 
	C21.205156,60.706200 27.078402,60.706200 33.367855,60.706200 
	C33.367855,55.723244 33.367855,51.116692 33.367855,46.510139 
	C33.588531,46.497162 33.809208,46.484188 34.029884,46.471210 
	C35.543957,51.300869 37.058029,56.130531 38.606792,61.070862 
	C44.098064,61.070862 49.252323,61.079174 54.406498,61.062241 
	C55.214821,61.059586 56.022762,60.942322 57.258034,60.844078 
	C56.086060,57.500607 55.083168,54.366348 53.891365,51.305645 
	C52.242924,47.072216 50.261578,43.197651 54.201149,38.747990 
	C55.801243,36.940723 55.768997,33.391308 55.878292,30.610962 
	C56.438728,16.353937 52.676628,12.505515 37.366920,12.272677 
z"/>
<path fill="#ECECEC" opacity="1.000000" stroke="none" 
	d="
M81.754829,61.151890 
	C78.529137,60.746742 75.749313,60.371548 72.875267,59.983631 
	C72.875267,55.536644 72.875267,51.426704 72.875267,47.140099 
	C79.165176,47.435295 85.260345,47.721352 91.304565,48.005020 
	C92.821281,44.087906 91.408440,42.994263 88.124527,43.164993 
	C85.817215,43.284954 83.498619,43.188168 80.919647,43.188168 
	C80.919647,38.629013 80.919647,34.396889 80.919647,29.818287 
	C83.452217,29.818287 85.805367,30.075155 88.061623,29.718678 
	C89.345390,29.515846 90.470764,28.310492 91.667465,27.556591 
	C90.536980,26.947342 89.425484,25.857752 88.272705,25.812155 
	C83.332787,25.616751 78.380707,25.728842 73.172348,25.728842 
	C73.172348,22.109377 73.172348,18.022085 73.172348,12.571951 
	C81.477859,12.522089 89.717987,12.067065 97.898712,12.572859 
	C102.952225,12.885303 107.702057,15.012206 109.247093,20.763765 
	C110.822075,26.626837 110.256386,31.990545 104.815636,36.157970 
	C111.135849,40.471317 111.051186,46.554379 109.447685,52.654205 
	C107.855263,58.711861 102.639046,60.568630 97.121819,61.033504 
	C92.179047,61.449978 87.176743,61.160091 81.754829,61.151890 
M81.575241,50.156139 
	C79.483223,50.156139 77.391205,50.156139 75.351349,50.156139 
	C75.351349,52.901798 75.351349,55.177517 75.351349,57.899731 
	C83.790710,57.899731 92.032936,58.377312 100.184814,57.725246 
	C105.285988,57.317207 107.620705,53.142490 107.743393,48.075993 
	C107.861046,43.217339 106.735100,39.125977 101.121773,37.891556 
	C100.358040,37.723606 99.759209,36.805805 98.926506,36.102077 
	C99.634773,35.539433 99.957001,35.165905 100.364761,34.977139 
	C106.690109,32.048923 108.042709,29.598665 107.107819,22.960802 
	C106.325966,17.409555 102.217178,15.569498 97.586113,15.131008 
	C92.327354,14.633086 86.980637,14.739250 81.690277,14.980366 
	C74.737785,15.297236 73.839989,16.970734 76.264053,23.027630 
	C80.637459,23.027630 84.786499,23.082342 88.933350,23.010447 
	C92.295601,22.952156 94.220985,24.006260 94.217110,27.856220 
	C94.213333,31.600756 92.213623,32.343494 89.148163,32.251160 
	C87.220955,32.193115 85.290588,32.240345 83.353836,32.240345 
	C83.353836,35.384178 83.353836,37.818283 83.353836,40.779972 
	C85.549988,40.779972 87.508995,40.893364 89.450180,40.755585 
	C93.116264,40.495373 94.605568,42.306828 94.601303,45.766582 
	C94.597084,49.187454 92.732315,50.471855 89.524277,50.344936 
	C87.198685,50.252934 84.870140,50.235565 81.575241,50.156139 
z"/>
<path fill="#EAEAEA" opacity="1.000000" stroke="none" 
	d="
M37.844460,12.272720 
	C52.676628,12.505515 56.438728,16.353937 55.878292,30.610962 
	C55.768997,33.391308 55.801243,36.940723 54.201149,38.747990 
	C50.261578,43.197651 52.242924,47.072216 53.891365,51.305645 
	C55.083168,54.366348 56.086060,57.500607 57.258034,60.844078 
	C56.022762,60.942322 55.214821,61.059586 54.406498,61.062241 
	C49.252323,61.079174 44.098064,61.070862 38.606792,61.070862 
	C37.058029,56.130531 35.543957,51.300869 34.029884,46.471210 
	C33.809208,46.484188 33.588531,46.497162 33.367855,46.510139 
	C33.367855,51.116692 33.367855,55.723244 33.367855,60.706200 
	C27.078402,60.706200 21.205156,60.706200 14.796629,60.706200 
	C14.796629,52.784904 14.796629,44.846642 14.796629,36.908382 
	C14.796629,28.922245 14.796629,20.936110 14.796629,12.272677 
	C22.507145,12.272677 29.937033,12.272677 37.844460,12.272720 
M51.440380,52.243992 
	C50.263542,48.986538 49.086708,45.729080 47.845264,42.292789 
	C55.021564,37.556763 53.082218,30.345427 52.921940,23.689705 
	C52.805294,18.846088 49.936531,15.607913 45.251152,15.401634 
	C36.028240,14.995585 26.774837,15.282053 17.489601,15.282053 
	C17.489601,29.719128 17.489601,43.793194 17.489601,58.207054 
	C21.783062,58.207054 25.819374,58.207054 30.470015,58.207054 
	C30.470015,53.104996 30.470015,48.223923 30.470015,43.224533 
	C32.546116,43.224533 34.011341,43.224533 35.779140,43.224533 
	C37.053158,47.355400 38.194683,51.490692 39.652149,55.511452 
	C40.076046,56.680859 41.327690,58.278614 42.329674,58.378521 
	C45.853512,58.729893 49.433819,58.515011 53.461315,58.515011 
	C52.737267,56.123398 52.263649,54.558987 51.440380,52.243992 
z"/>
<path fill="#1B1B1B" opacity="1.000000" stroke="none" 
	d="
M82.059074,50.170525 
	C84.870140,50.235565 87.198685,50.252934 89.524277,50.344936 
	C92.732315,50.471855 94.597084,49.187454 94.601303,45.766582 
	C94.605568,42.306828 93.116264,40.495373 89.450180,40.755585 
	C87.508995,40.893364 85.549988,40.779972 83.353836,40.779972 
	C83.353836,37.818283 83.353836,35.384178 83.353836,32.240345 
	C85.290588,32.240345 87.220955,32.193115 89.148163,32.251160 
	C92.213623,32.343494 94.213333,31.600756 94.217110,27.856220 
	C94.220985,24.006260 92.295601,22.952156 88.933350,23.010447 
	C84.786499,23.082342 80.637459,23.027630 76.264053,23.027630 
	C73.839989,16.970734 74.737785,15.297236 81.690277,14.980366 
	C86.980637,14.739250 92.327354,14.633086 97.586113,15.131008 
	C102.217178,15.569498 106.325966,17.409555 107.107819,22.960802 
	C108.042709,29.598665 106.690109,32.048923 100.364761,34.977139 
	C99.957001,35.165905 99.634773,35.539433 98.926506,36.102077 
	C99.759209,36.805805 100.358040,37.723606 101.121773,37.891556 
	C106.735100,39.125977 107.861046,43.217339 107.743393,48.075993 
	C107.620705,53.142490 105.285988,57.317207 100.184814,57.725246 
	C92.032936,58.377312 83.790710,57.899731 75.351349,57.899731 
	C75.351349,55.177517 75.351349,52.901798 75.351349,50.156139 
	C77.391205,50.156139 79.483223,50.156139 82.059074,50.170525 
z"/>
<path fill="#181818" opacity="1.000000" stroke="none" 
	d="
M51.615204,52.619286 
	C52.263649,54.558987 52.737267,56.123398 53.461315,58.515011 
	C49.433819,58.515011 45.853512,58.729893 42.329674,58.378521 
	C41.327690,58.278614 40.076046,56.680859 39.652149,55.511452 
	C38.194683,51.490692 37.053158,47.355400 35.779140,43.224533 
	C34.011341,43.224533 32.546116,43.224533 30.470015,43.224533 
	C30.470015,48.223923 30.470015,53.104996 30.470015,58.207054 
	C25.819374,58.207054 21.783062,58.207054 17.489601,58.207054 
	C17.489601,43.793194 17.489601,29.719128 17.489601,15.282053 
	C26.774837,15.282053 36.028240,14.995585 45.251152,15.401634 
	C49.936531,15.607913 52.805294,18.846088 52.921940,23.689705 
	C53.082218,30.345427 55.021564,37.556763 47.845264,42.292789 
	C49.086708,45.729080 50.263542,48.986538 51.615204,52.619286 
M38.570660,23.977737 
	C36.037975,23.656208 33.505295,23.334681 30.621868,22.968624 
	C30.621868,27.365591 30.621868,31.078106 30.621868,35.143360 
	C34.102886,34.706928 38.452644,37.328320 39.859863,32.167519 
	C40.490829,29.853548 39.484310,27.093081 38.570660,23.977737 
z"/>
<path fill="#E3E3E3" opacity="1.000000" stroke="none" 
	d="
M38.895760,24.256481 
	C39.484310,27.093081 40.490829,29.853548 39.859863,32.167519 
	C38.452644,37.328320 34.102886,34.706928 30.621868,35.143360 
	C30.621868,31.078106 30.621868,27.365591 30.621868,22.968624 
	C33.505295,23.334681 36.037975,23.656208 38.895760,24.256481 
M37.556641,31.025499 
	C37.627323,25.883572 37.627323,25.883572 33.178680,26.556944 
	C33.178680,28.518549 33.178680,30.483427 33.178680,33.137657 
	C34.778873,32.618530 36.032784,32.211746 37.556641,31.025499 
z"/>
<path fill="#272727" opacity="1.000000" stroke="none" 
	d="
M37.421669,31.415230 
	C36.032784,32.211746 34.778873,32.618530 33.178680,33.137657 
	C33.178680,30.483427 33.178680,28.518549 33.178680,26.556944 
	C37.627323,25.883572 37.627323,25.883572 37.421669,31.415230 
z"/>
</svg>